<svg width="2896" height="1618" xmlns="http://www.w3.org/2000/svg" xmlns:xlink="http://www.w3.org/1999/xlink" xml:space="preserve" overflow="hidden"><defs><clipPath id="clip0"><rect x="1274" y="1292" width="2896" height="1618"/></clipPath><clipPath id="clip1"><rect x="1277" y="1296" width="2889" height="1611"/></clipPath><clipPath id="clip2"><rect x="2156" y="1656" width="1086" height="1013"/></clipPath><clipPath id="clip3"><rect x="2156" y="1656" width="1086" height="1013"/></clipPath><clipPath id="clip4"><rect x="2156" y="1656" width="1086" height="1013"/></clipPath><clipPath id="clip5"><rect x="2156" y="1656" width="1086" height="1013"/></clipPath><clipPath id="clip6"><rect x="2156" y="1656" width="1086" height="1013"/></clipPath><clipPath id="clip7"><rect x="1277" y="1296" width="2889" height="1611"/></clipPath><clipPath id="clip8"><rect x="1277" y="1296" width="2889" height="1611"/></clipPath><clipPath id="clip9"><rect x="1277" y="1296" width="2889" height="1611"/></clipPath><clipPath id="clip10"><rect x="1277" y="1296" width="2889" height="1611"/></clipPath><clipPath id="clip11"><rect x="1277" y="1296" width="2889" height="1611"/></clipPath><clipPath id="clip12"><rect x="1277" y="1296" width="2889" height="1611"/></clipPath><clipPath id="clip13"><rect x="1277" y="1296" width="2889" height="1611"/></clipPath><clipPath id="clip14"><rect x="1277" y="1296" width="2889" height="1611"/></clipPath><clipPath id="clip15"><rect x="1277" y="1296" width="2889" height="1611"/></clipPath><clipPath id="clip16"><rect x="1277" y="1296" width="2889" height="1611"/></clipPath><clipPath id="clip17"><rect x="1277" y="1296" width="2889" height="1611"/></clipPath><clipPath id="clip18"><rect x="1277" y="1296" width="2889" height="1611"/></clipPath><clipPath id="clip19"><rect x="1277" y="1296" width="2889" height="1611"/></clipPath><clipPath id="clip20"><rect x="1277" y="1296" width="2889" height="1611"/></clipPath><clipPath id="clip21"><rect x="1277" y="1296" width="2889" height="1611"/></clipPath><clipPath id="clip22"><rect x="1277" y="1296" width="2889" height="1611"/></clipPath><clipPath id="clip23"><rect x="1277" y="1296" width="2889" height="1611"/></clipPath><clipPath id="clip24"><rect x="1277" y="1296" width="2889" height="1611"/></clipPath><clipPath id="clip25"><rect x="1277" y="1296" width="2889" height="1611"/></clipPath><clipPath id="clip26"><rect x="1277" y="1296" width="2889" height="1611"/></clipPath><clipPath id="clip27"><rect x="1277" y="1296" width="2889" height="1611"/></clipPath><clipPath id="clip28"><rect x="1277" y="1296" width="2889" height="1611"/></clipPath><clipPath id="clip29"><rect x="1277" y="1296" width="2889" height="1611"/></clipPath><clipPath id="clip30"><rect x="1277" y="1296" width="2889" height="1611"/></clipPath><clipPath id="clip31"><rect x="1277" y="1296" width="2889" height="1611"/></clipPath><clipPath id="clip32"><rect x="1277" y="1296" width="2889" height="1611"/></clipPath></defs><g clip-path="url(#clip0)" transform="translate(-1274 -1292)"><rect x="1278" y="1296" width="2889" height="1611" fill="#FFFFFF" fill-opacity="1"/><g clip-path="url(#clip1)"><path d="M2697.59 1656.5 2697.59 2665.5M3238.5 1656.5 3238.5 2665.5" stroke="#7F7F7F" stroke-width="3.4375" stroke-linecap="butt" stroke-linejoin="round" stroke-miterlimit="10" stroke-opacity="1" fill="none" fill-rule="nonzero"/></g><g clip-path="url(#clip2)"><path d="M3238.61 2540.58 2156.5 2540.58 2156.5 2523.58 3238.61 2523.58Z" stroke="#C78AAA" stroke-width="9.16667" stroke-linecap="butt" stroke-linejoin="round" stroke-miterlimit="10" stroke-opacity="1" fill="#C78AAA" fill-rule="nonzero" fill-opacity="1"/></g><g clip-path="url(#clip3)"><path d="M2162.57 2635.59 2156.5 2635.59 2156.5 2618.59 2162.57 2618.59ZM2224.57 2523.58 2156.5 2523.58 2156.5 2506.58 2224.57 2506.58ZM2159.57 2411.58 2156.5 2411.58 2156.5 2393.58 2159.57 2393.58ZM3238.61 2299.58 2156.5 2299.58 2156.5 2281.57 3238.61 2281.57ZM2208.57 2186.57 2156.5 2186.57 2156.5 2169.57 2208.57 2169.57ZM2159.57 2074.57 2156.5 2074.57 2156.5 2057.57 2159.57 2057.57ZM2299.58 1962.56 2156.5 1962.56 2156.5 1945.56 2299.58 1945.56ZM2202.57 1850.56 2156.5 1850.56 2156.5 1833.56 2202.57 1833.56ZM2296.58 1738.56 2156.5 1738.56 2156.5 1720.56 2296.58 1720.56Z" stroke="#1F4E79" stroke-width="9.16667" stroke-linecap="butt" stroke-linejoin="round" stroke-miterlimit="10" stroke-opacity="1" fill="#1F4E79" fill-rule="nonzero" fill-opacity="1"/></g><g clip-path="url(#clip4)"><path d="M3110.6 2618.59 2156.5 2618.59 2156.5 2601.59 3110.6 2601.59ZM2162.57 2506.58 2156.5 2506.58 2156.5 2488.58 2162.57 2488.58ZM2162.57 2393.58 2156.5 2393.58 2156.5 2376.58 2162.57 2376.58ZM2178.57 2281.57 2156.5 2281.57 2156.5 2264.57 2178.57 2264.57ZM2452.58 2169.57 2156.5 2169.57 2156.5 2152.57 2452.58 2152.57ZM3238.61 2057.57 2156.5 2057.57 2156.5 2040.57 3238.61 2040.57ZM2162.57 1945.56 2156.5 1945.56 2156.5 1927.56 2162.57 1927.56ZM2312.58 1833.56 2156.5 1833.56 2156.5 1815.56 2312.58 1815.56ZM2558.58 1720.56 2156.5 1720.56 2156.5 1703.56 2558.58 1703.56Z" stroke="#A9D18E" stroke-width="9.16667" stroke-linecap="butt" stroke-linejoin="round" stroke-miterlimit="10" stroke-opacity="1" fill="#A9D18E" fill-rule="nonzero" fill-opacity="1"/></g><g clip-path="url(#clip5)"><path d="M2180.57 2601.59 2156.5 2601.59 2156.5 2583.58 2180.57 2583.58ZM3238.61 2488.58 2156.5 2488.58 2156.5 2471.58 3238.61 2471.58ZM2246.57 2264.57 2156.5 2264.57 2156.5 2247.57 2246.57 2247.57ZM2197.57 2152.57 2156.5 2152.57 2156.5 2135.57 2197.57 2135.57ZM2164.57 2040.57 2156.5 2040.57 2156.5 2022.57 2164.57 2022.57ZM2229.57 1927.56 2156.5 1927.56 2156.5 1910.56 2229.57 1910.56ZM2400.58 1815.56 2156.5 1815.56 2156.5 1798.56 2400.58 1798.56ZM2164.57 1703.56 2156.5 1703.56 2156.5 1686.56 2164.57 1686.56Z" stroke="#FF5228" stroke-width="9.16667" stroke-linecap="butt" stroke-linejoin="round" stroke-miterlimit="10" stroke-opacity="1" fill="#FF5F4A" fill-rule="nonzero" fill-opacity="1"/></g><g clip-path="url(#clip6)"><path d="M3238.61 2583.58 2156.5 2583.58 2156.5 2566.58 3238.61 2566.58ZM2220.57 2471.58 2156.5 2471.58 2156.5 2454.58 2220.57 2454.58ZM2220.57 2359.58 2156.5 2359.58 2156.5 2342.58 2220.57 2342.58ZM2220.57 2247.57 2156.5 2247.57 2156.5 2229.57 2220.57 2229.57ZM2220.57 2135.57 2156.5 2135.57 2156.5 2117.57 2220.57 2117.57ZM2220.57 1910.56 2156.5 1910.56 2156.5 1893.56 2220.57 1893.56ZM2220.57 1798.56 2156.5 1798.56 2156.5 1781.56 2220.57 1781.56ZM2220.57 1686.56 2156.5 1686.56 2156.5 1669.55 2220.57 1669.55Z" stroke="#FFD966" stroke-width="9.16667" stroke-linecap="butt" stroke-linejoin="round" stroke-miterlimit="10" stroke-opacity="1" fill="#FFD966" fill-rule="nonzero" fill-opacity="1"/></g><g clip-path="url(#clip7)"><path d="M0 0 0.000360892 1009" stroke="#D9D9D9" stroke-width="3.4375" stroke-linecap="butt" stroke-linejoin="round" stroke-miterlimit="10" stroke-opacity="1" fill="none" fill-rule="evenodd" transform="matrix(1 0 0 -1 2156.5 2665.5)"/></g><g clip-path="url(#clip8)"><path d="M2156.5 2665.5 2179.5 2665.5M2156.5 2553.58 2179.5 2553.58M2156.5 2441.58 2179.5 2441.58M2156.5 2329.58 2179.5 2329.58M2156.5 2217.57 2179.5 2217.57M2156.5 2104.57 2179.5 2104.57M2156.5 1992.57 2179.5 1992.57M2156.5 1880.56 2179.5 1880.56M2156.5 1768.56 2179.5 1768.56M2156.5 1656.5 2179.5 1656.5" stroke="#D9D9D9" stroke-width="3.4375" stroke-linecap="butt" stroke-linejoin="round" stroke-miterlimit="10" stroke-opacity="1" fill="none" fill-rule="nonzero"/></g><g clip-path="url(#clip9)"><text fill="#595959" fill-opacity="1" font-family="Calibri,Calibri_MSFontService,sans-serif" font-style="normal" font-variant="normal" font-weight="400" font-stretch="normal" font-size="64" text-anchor="start" direction="ltr" writing-mode="lr-tb" unicode-bidi="normal" text-decoration="none" transform="matrix(1 0 0 1 2140.39 2768)">0</text></g><g clip-path="url(#clip10)"><text fill="#595959" fill-opacity="1" font-family="Calibri,Calibri_MSFontService,sans-serif" font-style="normal" font-variant="normal" font-weight="400" font-stretch="normal" font-size="64" text-anchor="start" direction="ltr" writing-mode="lr-tb" unicode-bidi="normal" text-decoration="none" transform="matrix(1 0 0 1 2657.2 2768)">0.5</text></g><g clip-path="url(#clip11)"><text fill="#595959" fill-opacity="1" font-family="Calibri,Calibri_MSFontService,sans-serif" font-style="normal" font-variant="normal" font-weight="400" font-stretch="normal" font-size="64" text-anchor="start" direction="ltr" writing-mode="lr-tb" unicode-bidi="normal" text-decoration="none" transform="matrix(1 0 0 1 3222.74 2768)">1</text></g><g clip-path="url(#clip12)"><text fill="#000000" fill-opacity="1" font-family="Calibri,Calibri_MSFontService,sans-serif" font-style="normal" font-variant="normal" font-weight="400" font-stretch="normal" font-size="73" text-anchor="start" direction="ltr" writing-mode="lr-tb" unicode-bidi="normal" text-decoration="none" transform="matrix(1 0 0 1 1986.68 2631)">Sex</text></g><g clip-path="url(#clip13)"><text fill="#000000" fill-opacity="1" font-family="Calibri,Calibri_MSFontService,sans-serif" font-style="normal" font-variant="normal" font-weight="400" font-stretch="normal" font-size="73" text-anchor="start" direction="ltr" writing-mode="lr-tb" unicode-bidi="normal" text-decoration="none" transform="matrix(1 0 0 1 1941.86 2519)">BWV</text></g><g clip-path="url(#clip14)"><text fill="#000000" fill-opacity="1" font-family="Calibri,Calibri_MSFontService,sans-serif" font-style="normal" font-variant="normal" font-weight="400" font-stretch="normal" font-size="73" text-anchor="start" direction="ltr" writing-mode="lr-tb" unicode-bidi="normal" text-decoration="none" transform="matrix(1 0 0 1 1770.35 2407)">RegularDG</text></g><g clip-path="url(#clip15)"><text fill="#000000" fill-opacity="1" font-family="Calibri,Calibri_MSFontService,sans-serif" font-style="normal" font-variant="normal" font-weight="400" font-stretch="normal" font-size="73" text-anchor="start" direction="ltr" writing-mode="lr-tb" unicode-bidi="normal" text-decoration="none" transform="matrix(1 0 0 1 1740.56 2295)">IrregularDG</text></g><g clip-path="url(#clip16)"><text fill="#000000" fill-opacity="1" font-family="Calibri,Calibri_MSFontService,sans-serif" font-style="normal" font-variant="normal" font-weight="400" font-stretch="normal" font-size="73" text-anchor="start" direction="ltr" writing-mode="lr-tb" unicode-bidi="normal" text-decoration="none" transform="matrix(1 0 0 1 1457.12 2183)">RegressionStructures</text></g><g clip-path="url(#clip17)"><text fill="#000000" fill-opacity="1" font-family="Calibri,Calibri_MSFontService,sans-serif" font-style="normal" font-variant="normal" font-weight="400" font-stretch="normal" font-size="73" text-anchor="start" direction="ltr" writing-mode="lr-tb" unicode-bidi="normal" text-decoration="none" transform="matrix(1 0 0 1 1614.47 2070)">IrregularStreaks</text></g><g clip-path="url(#clip18)"><text fill="#000000" fill-opacity="1" font-family="Calibri,Calibri_MSFontService,sans-serif" font-style="normal" font-variant="normal" font-weight="400" font-stretch="normal" font-size="73" text-anchor="start" direction="ltr" writing-mode="lr-tb" unicode-bidi="normal" text-decoration="none" transform="matrix(1 0 0 1 1644.26 1958)">RegularStreaks</text></g><g clip-path="url(#clip19)"><text fill="#000000" fill-opacity="1" font-family="Calibri,Calibri_MSFontService,sans-serif" font-style="normal" font-variant="normal" font-weight="400" font-stretch="normal" font-size="73" text-anchor="start" direction="ltr" writing-mode="lr-tb" unicode-bidi="normal" text-decoration="none" transform="matrix(1 0 0 1 1344.33 1846)">AtypicalPigmentNetwork</text></g><g clip-path="url(#clip20)"><text fill="#000000" fill-opacity="1" font-family="Calibri,Calibri_MSFontService,sans-serif" font-style="normal" font-variant="normal" font-weight="400" font-stretch="normal" font-size="73" text-anchor="start" direction="ltr" writing-mode="lr-tb" unicode-bidi="normal" text-decoration="none" transform="matrix(1 0 0 1 1375.61 1734)">TypicalPigmentNetwork</text></g><g clip-path="url(#clip21)"><rect x="2507.5" y="1323.5" width="429" height="148" stroke="#FFFFFF" stroke-width="4.58333" stroke-linecap="butt" stroke-linejoin="round" stroke-miterlimit="10" stroke-opacity="1" fill="none"/></g><g clip-path="url(#clip22)"><text fill="#000000" fill-opacity="1" font-family="Calibri,Calibri_MSFontService,sans-serif" font-style="normal" font-variant="normal" font-weight="700" font-stretch="normal" font-size="110" text-anchor="start" direction="ltr" writing-mode="lr-tb" unicode-bidi="normal" text-decoration="none" transform="matrix(1 0 0 1 2521.64 1436)">BENIGN</text></g><g clip-path="url(#clip23)"><rect x="1866.5" y="1537.5" width="39.9999" height="39.9999" stroke="#FFD966" stroke-width="9.16667" stroke-linecap="butt" stroke-linejoin="round" stroke-miterlimit="10" stroke-opacity="1" fill="#FFD966" fill-opacity="1"/></g><g clip-path="url(#clip24)"><text fill="#000000" fill-opacity="1" font-family="Calibri,Calibri_MSFontService,sans-serif" font-style="normal" font-variant="normal" font-weight="400" font-stretch="normal" font-size="73" text-anchor="start" direction="ltr" writing-mode="lr-tb" unicode-bidi="normal" text-decoration="none" transform="matrix(1 0 0 1 1924.74 1579)">Expert5</text></g><g clip-path="url(#clip25)"><rect x="2228.5" y="1537.5" width="39.9998" height="39.9999" stroke="#FF5228" stroke-width="9.16667" stroke-linecap="butt" stroke-linejoin="round" stroke-miterlimit="10" stroke-opacity="1" fill="#FF5F4A" fill-opacity="1"/></g><g clip-path="url(#clip26)"><text fill="#000000" fill-opacity="1" font-family="Calibri,Calibri_MSFontService,sans-serif" font-style="normal" font-variant="normal" font-weight="400" font-stretch="normal" font-size="73" text-anchor="start" direction="ltr" writing-mode="lr-tb" unicode-bidi="normal" text-decoration="none" transform="matrix(1 0 0 1 2286.95 1579)">Expert4</text></g><g clip-path="url(#clip27)"><rect x="2590.5" y="1537.5" width="39.9998" height="39.9999" stroke="#A9D18E" stroke-width="9.16667" stroke-linecap="butt" stroke-linejoin="round" stroke-miterlimit="10" stroke-opacity="1" fill="#A9D18E" fill-opacity="1"/></g><g clip-path="url(#clip28)"><text fill="#000000" fill-opacity="1" font-family="Calibri,Calibri_MSFontService,sans-serif" font-style="normal" font-variant="normal" font-weight="400" font-stretch="normal" font-size="73" text-anchor="start" direction="ltr" writing-mode="lr-tb" unicode-bidi="normal" text-decoration="none" transform="matrix(1 0 0 1 2649.15 1579)">Expert3</text></g><g clip-path="url(#clip29)"><rect x="2952.5" y="1537.5" width="39.9998" height="39.9999" stroke="#1F4E79" stroke-width="9.16667" stroke-linecap="butt" stroke-linejoin="round" stroke-miterlimit="10" stroke-opacity="1" fill="#1F4E79" fill-opacity="1"/></g><g clip-path="url(#clip30)"><text fill="#000000" fill-opacity="1" font-family="Calibri,Calibri_MSFontService,sans-serif" font-style="normal" font-variant="normal" font-weight="400" font-stretch="normal" font-size="73" text-anchor="start" direction="ltr" writing-mode="lr-tb" unicode-bidi="normal" text-decoration="none" transform="matrix(1 0 0 1 3011.36 1579)">Expert2</text></g><g clip-path="url(#clip31)"><rect x="3314.5" y="1537.5" width="41" height="39.9999" stroke="#C78AAA" stroke-width="9.16667" stroke-linecap="butt" stroke-linejoin="round" stroke-miterlimit="10" stroke-opacity="1" fill="#C78AAA" fill-opacity="1"/></g><g clip-path="url(#clip32)"><text fill="#000000" fill-opacity="1" font-family="Calibri,Calibri_MSFontService,sans-serif" font-style="normal" font-variant="normal" font-weight="400" font-stretch="normal" font-size="73" text-anchor="start" direction="ltr" writing-mode="lr-tb" unicode-bidi="normal" text-decoration="none" transform="matrix(1 0 0 1 3373.56 1579)">Expert1</text></g></g></svg>