<svg width="2737" height="1682" xmlns="http://www.w3.org/2000/svg" xmlns:xlink="http://www.w3.org/1999/xlink" xml:space="preserve" overflow="hidden"><defs><clipPath id="clip0"><rect x="2607" y="3396" width="2737" height="1682"/></clipPath><clipPath id="clip1"><rect x="2611" y="3398" width="2731" height="1676"/></clipPath><clipPath id="clip2"><rect x="3462" y="3723" width="1029" height="1081"/></clipPath><clipPath id="clip3"><rect x="3462" y="3723" width="1029" height="1081"/></clipPath><clipPath id="clip4"><rect x="3462" y="3723" width="1029" height="1081"/></clipPath><clipPath id="clip5"><rect x="3462" y="3723" width="1029" height="1081"/></clipPath><clipPath id="clip6"><rect x="2611" y="3398" width="2731" height="1676"/></clipPath><clipPath id="clip7"><rect x="2611" y="3398" width="2731" height="1676"/></clipPath><clipPath id="clip8"><rect x="2611" y="3398" width="2731" height="1676"/></clipPath><clipPath id="clip9"><rect x="2611" y="3398" width="2731" height="1676"/></clipPath><clipPath id="clip10"><rect x="2611" y="3398" width="2731" height="1676"/></clipPath><clipPath id="clip11"><rect x="2611" y="3398" width="2731" height="1676"/></clipPath><clipPath id="clip12"><rect x="2611" y="3398" width="2731" height="1676"/></clipPath><clipPath id="clip13"><rect x="2611" y="3398" width="2731" height="1676"/></clipPath><clipPath id="clip14"><rect x="2611" y="3398" width="2731" height="1676"/></clipPath><clipPath id="clip15"><rect x="2611" y="3398" width="2731" height="1676"/></clipPath><clipPath id="clip16"><rect x="2611" y="3398" width="2731" height="1676"/></clipPath><clipPath id="clip17"><rect x="2611" y="3398" width="2731" height="1676"/></clipPath><clipPath id="clip18"><rect x="2611" y="3398" width="2731" height="1676"/></clipPath><clipPath id="clip19"><rect x="2611" y="3398" width="2731" height="1676"/></clipPath><clipPath id="clip20"><rect x="2611" y="3398" width="2731" height="1676"/></clipPath><clipPath id="clip21"><rect x="2611" y="3398" width="2731" height="1676"/></clipPath><clipPath id="clip22"><rect x="2611" y="3398" width="2731" height="1676"/></clipPath><clipPath id="clip23"><rect x="2611" y="3398" width="2731" height="1676"/></clipPath><clipPath id="clip24"><rect x="2611" y="3398" width="2731" height="1676"/></clipPath><clipPath id="clip25"><rect x="2611" y="3398" width="2731" height="1676"/></clipPath><clipPath id="clip26"><rect x="2611" y="3398" width="2731" height="1676"/></clipPath><clipPath id="clip27"><rect x="2611" y="3398" width="2731" height="1676"/></clipPath><clipPath id="clip28"><rect x="2611" y="3398" width="2731" height="1676"/></clipPath><clipPath id="clip29"><rect x="2611" y="3398" width="2731" height="1676"/></clipPath><clipPath id="clip30"><rect x="2611" y="3398" width="2731" height="1676"/></clipPath><clipPath id="clip31"><rect x="2611" y="3398" width="2731" height="1676"/></clipPath><clipPath id="clip32"><rect x="2611" y="3398" width="2731" height="1676"/></clipPath></defs><g clip-path="url(#clip0)" transform="translate(-2607 -3396)"><rect x="2611" y="3398" width="2732" height="1676" fill="#FFFFFF" fill-opacity="1"/><g clip-path="url(#clip1)"><path d="M3974.63 3723.5 3974.63 4801.5M4487.5 3723.5 4487.5 4801.5" stroke="#7F7F7F" stroke-width="3.4375" stroke-linecap="butt" stroke-linejoin="round" stroke-miterlimit="10" stroke-opacity="1" fill="none" fill-rule="nonzero"/></g><g clip-path="url(#clip2)"><path d="M4487.65 3888.63 3462.5 3888.63 3462.5 3868.63 4487.65 3868.63Z" stroke="#1F4E79" stroke-width="9.16667" stroke-linecap="butt" stroke-linejoin="round" stroke-miterlimit="10" stroke-opacity="1" fill="#1F4E79" fill-rule="nonzero" fill-opacity="1"/></g><g clip-path="url(#clip3)"><path d="M3491.61 4811.5 3462.5 4811.5 3462.5 4790.66 3491.61 4790.66ZM3549.62 4676.65 3462.5 4676.65 3462.5 4655.65 3549.62 4655.65ZM3549.62 4541.65 3462.5 4541.65 3462.5 4521.65 3549.62 4521.65ZM3491.61 4002.63 3462.5 4002.63 3462.5 3982.63 3491.61 3982.63ZM4487.65 3868.63 3462.5 3868.63 3462.5 3847.63 4487.65 3847.63ZM3491.61 3733.62 3462.5 3733.62 3462.5 3712.5 3491.61 3712.5Z" stroke="#A9D18E" stroke-width="9.16667" stroke-linecap="butt" stroke-linejoin="round" stroke-miterlimit="10" stroke-opacity="1" fill="#A9D18E" fill-rule="nonzero" fill-opacity="1"/></g><g clip-path="url(#clip4)"><path d="M4487.65 4655.65 3462.5 4655.65 3462.5 4635.65 4487.65 4635.65ZM3575.62 4386.64 3462.5 4386.64 3462.5 4365.64 3575.62 4365.64ZM3803.62 4117.64 3462.5 4117.64 3462.5 4096.63 3803.62 4096.63Z" stroke="#FF5F4A" stroke-width="9.16667" stroke-linecap="butt" stroke-linejoin="round" stroke-miterlimit="10" stroke-opacity="1" fill="#FF5F4A" fill-rule="nonzero" fill-opacity="1"/></g><g clip-path="url(#clip5)"><path d="M3473.61 4635.65 3462.5 4635.65 3462.5 4614.65 3473.61 4614.65ZM3490.61 4500.65 3462.5 4500.65 3462.5 4479.65 3490.61 4479.65ZM3512.62 3961.63 3462.5 3961.63 3462.5 3940.63 3512.62 3940.63ZM4487.65 3826.63 3462.5 3826.63 3462.5 3806.62 4487.65 3806.62ZM3694.62 3692.62 3462.5 3692.62 3462.5 3671.5 3694.62 3671.5Z" stroke="#FFD966" stroke-width="9.16667" stroke-linecap="butt" stroke-linejoin="round" stroke-miterlimit="10" stroke-opacity="1" fill="#FFD966" fill-rule="nonzero" fill-opacity="1"/></g><g clip-path="url(#clip6)"><path d="M3462.5 4801.5 4487.5 4801.5" stroke="#FFFFFF" stroke-width="3.4375" stroke-linecap="butt" stroke-linejoin="round" stroke-miterlimit="10" stroke-opacity="1" fill="none" fill-rule="evenodd"/></g><g clip-path="url(#clip7)"><path d="M3462.5 4785.66 3462.5 4801.5M3564.62 4785.66 3564.62 4801.5M3667.62 4785.66 3667.62 4801.5M3769.62 4785.66 3769.62 4801.5M3872.63 4785.66 3872.63 4801.5M3974.63 4785.66 3974.63 4801.5M4077.63 4785.66 4077.63 4801.5M4179.64 4785.66 4179.64 4801.5M4282.64 4785.66 4282.64 4801.5M4385.64 4785.66 4385.64 4801.5M4487.5 4785.66 4487.5 4801.5M3462.5 4780.5 3462.5 4801.5M3974.63 4780.5 3974.63 4801.5M4487.5 4780.5 4487.5 4801.5" stroke="#FFFFFF" stroke-width="3.4375" stroke-linecap="butt" stroke-linejoin="round" stroke-miterlimit="10" stroke-opacity="1" fill="none" fill-rule="nonzero"/></g><g clip-path="url(#clip8)"><path d="M0 0 0.000360892 1078" stroke="#D9D9D9" stroke-width="3.4375" stroke-linecap="butt" stroke-linejoin="round" stroke-miterlimit="10" stroke-opacity="1" fill="none" fill-rule="evenodd" transform="matrix(1 0 0 -1 3462.5 4801.5)"/></g><g clip-path="url(#clip9)"><path d="M3462.5 4801.5 3485.5 4801.5M3462.5 4666.65 3485.5 4666.65M3462.5 4531.65 3485.5 4531.65M3462.5 4396.64 3485.5 4396.64M3462.5 4262.64 3485.5 4262.64M3462.5 4127.64 3485.5 4127.64M3462.5 3992.63 3485.5 3992.63M3462.5 3857.63 3485.5 3857.63M3462.5 3723.5 3485.5 3723.5" stroke="#D9D9D9" stroke-width="3.4375" stroke-linecap="butt" stroke-linejoin="round" stroke-miterlimit="10" stroke-opacity="1" fill="none" fill-rule="nonzero"/></g><g clip-path="url(#clip10)"><text fill="#595959" fill-opacity="1" font-family="Calibri,Calibri_MSFontService,sans-serif" font-style="normal" font-variant="normal" font-weight="400" font-stretch="normal" font-size="64" text-anchor="start" direction="ltr" writing-mode="lr-tb" unicode-bidi="normal" text-decoration="none" transform="matrix(1 0 0 1 3445.82 4903)">0</text></g><g clip-path="url(#clip11)"><text fill="#595959" fill-opacity="1" font-family="Calibri,Calibri_MSFontService,sans-serif" font-style="normal" font-variant="normal" font-weight="400" font-stretch="normal" font-size="64" text-anchor="start" direction="ltr" writing-mode="lr-tb" unicode-bidi="normal" text-decoration="none" transform="matrix(1 0 0 1 3934.3 4903)">0.5</text></g><g clip-path="url(#clip12)"><text fill="#595959" fill-opacity="1" font-family="Calibri,Calibri_MSFontService,sans-serif" font-style="normal" font-variant="normal" font-weight="400" font-stretch="normal" font-size="64" text-anchor="start" direction="ltr" writing-mode="lr-tb" unicode-bidi="normal" text-decoration="none" transform="matrix(1 0 0 1 4471.5 4903)">1</text></g><g clip-path="url(#clip13)"><text fill="#000000" fill-opacity="1" font-family="Calibri,Calibri_MSFontService,sans-serif" font-style="normal" font-variant="normal" font-weight="400" font-stretch="normal" font-size="73" text-anchor="start" direction="ltr" writing-mode="lr-tb" unicode-bidi="normal" text-decoration="none" transform="matrix(0.999848 0.0174524 -0.0174524 0.999848 3290.91 4825)">Sex</text></g><g clip-path="url(#clip14)"><text fill="#000000" fill-opacity="1" font-family="Calibri,Calibri_MSFontService,sans-serif" font-style="normal" font-variant="normal" font-weight="400" font-stretch="normal" font-size="73" text-anchor="start" direction="ltr" writing-mode="lr-tb" unicode-bidi="normal" text-decoration="none" transform="matrix(0.999848 0.0174524 -0.0174524 0.999848 3246.09 4689)">BWV</text></g><g clip-path="url(#clip15)"><text fill="#000000" fill-opacity="1" font-family="Calibri,Calibri_MSFontService,sans-serif" font-style="normal" font-variant="normal" font-weight="400" font-stretch="normal" font-size="73" text-anchor="start" direction="ltr" writing-mode="lr-tb" unicode-bidi="normal" text-decoration="none" transform="matrix(0.999848 0.0174524 -0.0174524 0.999848 3074.61 4551)">RegularDG</text></g><g clip-path="url(#clip16)"><text fill="#000000" fill-opacity="1" font-family="Calibri,Calibri_MSFontService,sans-serif" font-style="normal" font-variant="normal" font-weight="400" font-stretch="normal" font-size="73" text-anchor="start" direction="ltr" writing-mode="lr-tb" unicode-bidi="normal" text-decoration="none" transform="matrix(0.999848 0.0174524 -0.0174524 0.999848 3044.82 4416)">IrregularDG</text></g><g clip-path="url(#clip17)"><text fill="#000000" fill-opacity="1" font-family="Calibri,Calibri_MSFontService,sans-serif" font-style="normal" font-variant="normal" font-weight="400" font-stretch="normal" font-size="73" text-anchor="start" direction="ltr" writing-mode="lr-tb" unicode-bidi="normal" text-decoration="none" transform="matrix(0.999848 0.0174524 -0.0174524 0.999848 2761.43 4276)">RegressionStructures</text></g><g clip-path="url(#clip18)"><text fill="#000000" fill-opacity="1" font-family="Calibri,Calibri_MSFontService,sans-serif" font-style="normal" font-variant="normal" font-weight="400" font-stretch="normal" font-size="73" text-anchor="start" direction="ltr" writing-mode="lr-tb" unicode-bidi="normal" text-decoration="none" transform="matrix(0.999848 0.0174524 -0.0174524 0.999848 2918.75 4144)">IrregularStreaks</text></g><g clip-path="url(#clip19)"><text fill="#000000" fill-opacity="1" font-family="Calibri,Calibri_MSFontService,sans-serif" font-style="normal" font-variant="normal" font-weight="400" font-stretch="normal" font-size="73" text-anchor="start" direction="ltr" writing-mode="lr-tb" unicode-bidi="normal" text-decoration="none" transform="matrix(0.999848 0.0174524 -0.0174524 0.999848 2948.54 4010)">RegularStreaks</text></g><g clip-path="url(#clip20)"><text fill="#000000" fill-opacity="1" font-family="Calibri,Calibri_MSFontService,sans-serif" font-style="normal" font-variant="normal" font-weight="400" font-stretch="normal" font-size="73" text-anchor="start" direction="ltr" writing-mode="lr-tb" unicode-bidi="normal" text-decoration="none" transform="matrix(0.999848 0.0174524 -0.0174524 0.999848 2648.65 3870)">AtypicalPigmentNetwork</text></g><g clip-path="url(#clip21)"><text fill="#000000" fill-opacity="1" font-family="Calibri,Calibri_MSFontService,sans-serif" font-style="normal" font-variant="normal" font-weight="400" font-stretch="normal" font-size="73" text-anchor="start" direction="ltr" writing-mode="lr-tb" unicode-bidi="normal" text-decoration="none" transform="matrix(0.999848 0.0174524 -0.0174524 0.999848 2679.93 3736)">TypicalPigmentNetwork</text></g><g clip-path="url(#clip22)"><text fill="#000000" fill-opacity="1" font-family="Calibri,Calibri_MSFontService,sans-serif" font-style="normal" font-variant="normal" font-weight="700" font-stretch="normal" font-size="110" text-anchor="start" direction="ltr" writing-mode="lr-tb" unicode-bidi="normal" text-decoration="none" transform="matrix(1 0 0 1 3658.5 3538)">MALIGNANT</text></g><g clip-path="url(#clip23)"><rect x="3075.5" y="3600.5" width="39.9998" height="41" stroke="#FFD966" stroke-width="9.16667" stroke-linecap="butt" stroke-linejoin="round" stroke-miterlimit="10" stroke-opacity="1" fill="#FFD966" fill-opacity="1"/></g><g clip-path="url(#clip24)"><text fill="#000000" fill-opacity="1" font-family="Calibri,Calibri_MSFontService,sans-serif" font-style="normal" font-variant="normal" font-weight="400" font-stretch="normal" font-size="73" text-anchor="start" direction="ltr" writing-mode="lr-tb" unicode-bidi="normal" text-decoration="none" transform="matrix(1 0 0 1 3133.76 3642)">Expert5</text></g><g clip-path="url(#clip25)"><rect x="3464.5" y="3600.5" width="39.9998" height="41" stroke="#FF5F4A" stroke-width="9.16667" stroke-linecap="butt" stroke-linejoin="round" stroke-miterlimit="10" stroke-opacity="1" fill="#FF5F4A" fill-opacity="1"/></g><g clip-path="url(#clip26)"><text fill="#000000" fill-opacity="1" font-family="Calibri,Calibri_MSFontService,sans-serif" font-style="normal" font-variant="normal" font-weight="400" font-stretch="normal" font-size="73" text-anchor="start" direction="ltr" writing-mode="lr-tb" unicode-bidi="normal" text-decoration="none" transform="matrix(1 0 0 1 3522.76 3642)">Expert4</text></g><g clip-path="url(#clip27)"><rect x="3853.5" y="3600.5" width="40.0002" height="41" stroke="#A9D18E" stroke-width="9.16667" stroke-linecap="butt" stroke-linejoin="round" stroke-miterlimit="10" stroke-opacity="1" fill="#A9D18E" fill-opacity="1"/></g><g clip-path="url(#clip28)"><text fill="#000000" fill-opacity="1" font-family="Calibri,Calibri_MSFontService,sans-serif" font-style="normal" font-variant="normal" font-weight="400" font-stretch="normal" font-size="73" text-anchor="start" direction="ltr" writing-mode="lr-tb" unicode-bidi="normal" text-decoration="none" transform="matrix(1 0 0 1 3911.76 3642)">Expert3</text></g><g clip-path="url(#clip29)"><rect x="4242.5" y="3600.5" width="40" height="41" stroke="#1F4E79" stroke-width="9.16667" stroke-linecap="butt" stroke-linejoin="round" stroke-miterlimit="10" stroke-opacity="1" fill="#1F4E79" fill-opacity="1"/></g><g clip-path="url(#clip30)"><text fill="#000000" fill-opacity="1" font-family="Calibri,Calibri_MSFontService,sans-serif" font-style="normal" font-variant="normal" font-weight="400" font-stretch="normal" font-size="73" text-anchor="start" direction="ltr" writing-mode="lr-tb" unicode-bidi="normal" text-decoration="none" transform="matrix(1 0 0 1 4300.76 3642)">Expert2</text></g><g clip-path="url(#clip31)"><rect x="4631.5" y="3600.5" width="40" height="41" stroke="#C78AAA" stroke-width="9.16667" stroke-linecap="butt" stroke-linejoin="round" stroke-miterlimit="10" stroke-opacity="1" fill="#C78AAA" fill-opacity="1"/></g><g clip-path="url(#clip32)"><text fill="#000000" fill-opacity="1" font-family="Calibri,Calibri_MSFontService,sans-serif" font-style="normal" font-variant="normal" font-weight="400" font-stretch="normal" font-size="73" text-anchor="start" direction="ltr" writing-mode="lr-tb" unicode-bidi="normal" text-decoration="none" transform="matrix(1 0 0 1 4689.76 3642)">Expert1</text></g></g></svg>